<svg width="16" height="17" viewBox="0 0 16 17" fill="none" xmlns="http://www.w3.org/2000/svg">
<path d="M6.72199 13.7431L7.41074 13.0181L6.722 13.7431C7.06929 14.0731 7.52985 14.25 8 14.25C8.47015 14.25 8.93071 14.0731 9.278 13.7431C9.62704 13.4115 9.83333 12.9505 9.83333 12.4583V10.0833C9.83333 9.59112 9.62704 9.13012 9.278 8.79854C8.93072 8.46862 8.47015 8.29167 8 8.29167C7.52985 8.29167 7.06928 8.46862 6.72199 8.79854L7.41074 9.52354L6.72199 8.79854C6.37296 9.13012 6.16667 9.59112 6.16667 10.0833V12.4583C6.16667 12.9505 6.37296 13.4115 6.72199 13.7431ZM1.5 8.5C1.5 8.15236 1.64489 7.8079 1.92098 7.54562C2.19881 7.28168 2.5861 7.125 3 7.125H13C13.4139 7.125 13.8012 7.28168 14.079 7.54562C14.3551 7.8079 14.5 8.15236 14.5 8.5V14.0417C14.5 14.3893 14.3551 14.7338 14.079 14.996C13.8012 15.26 13.4139 15.4167 13 15.4167H3C2.5861 15.4167 2.19881 15.26 1.92098 14.996C1.64489 14.7338 1.5 14.3893 1.5 14.0417V8.5Z" fill="white" stroke="white" stroke-width="2"/>
<path d="M4.66675 6.91667V4.54167C4.66675 3.70181 5.01794 2.89636 5.64306 2.30249C6.26818 1.70863 7.11603 1.375 8.00008 1.375C8.88414 1.375 9.73198 1.70863 10.3571 2.30249C10.9822 2.89636 11.3334 3.70181 11.3334 4.54167V6.91667" stroke="white" stroke-width="2" stroke-linecap="round" stroke-linejoin="round"/>
</svg>
